<?xml version="1.0" encoding="UTF-8" ?>
<!DOCTYPE svg PUBLIC "-//W3C//DTD SVG 1.1//EN" "http://www.w3.org/Graphics/SVG/1.1/DTD/svg11.dtd">
<svg viewBox="0 0 2722 272" version="1.1" xmlns="http://www.w3.org/2000/svg">
<g id="#222ff">
<path fill="#222" opacity="1.00" d=" M 1599.42 45.46 C 1618.40 35.84 1639.75 31.24 1661.00 31.47 C 1680.48 31.28 1701.10 32.44 1718.22 42.76 C 1724.82 46.44 1730.10 51.91 1736.06 56.46 C 1736.56 49.39 1736.19 42.31 1736.27 35.23 C 1748.23 35.39 1760.17 34.37 1772.14 34.87 C 1772.31 51.58 1772.16 68.29 1772.21 85.00 C 1772.04 95.87 1772.55 106.75 1771.94 117.60 C 1759.61 117.31 1747.28 117.88 1734.95 117.81 C 1733.79 117.59 1731.67 118.21 1731.41 116.57 C 1728.54 106.53 1724.18 96.72 1717.29 88.77 C 1707.05 76.55 1691.59 69.82 1675.96 68.15 C 1659.70 66.63 1642.55 67.25 1627.62 74.56 C 1609.48 82.70 1595.64 99.52 1590.80 118.76 C 1587.26 132.77 1587.05 147.68 1590.27 161.77 C 1594.30 178.42 1604.43 193.67 1618.84 203.10 C 1635.77 214.48 1657.23 217.16 1677.09 214.22 C 1694.13 211.61 1710.78 203.20 1721.15 189.13 C 1725.59 183.50 1728.47 176.89 1731.16 170.30 C 1746.12 170.35 1761.08 170.13 1776.04 170.25 C 1772.97 187.39 1765.46 203.85 1753.80 216.86 C 1741.99 230.79 1725.38 239.76 1708.16 245.18 C 1688.73 251.10 1668.12 252.55 1647.94 250.94 C 1626.35 249.11 1604.93 242.44 1587.08 229.97 C 1571.04 218.85 1558.24 202.98 1551.22 184.74 C 1544.07 166.45 1542.25 146.39 1544.26 126.96 C 1545.96 111.24 1550.91 95.80 1559.30 82.35 C 1568.98 66.71 1583.17 54.00 1599.42 45.46 Z" />
<path fill="#222" opacity="1.00" d=" M 2561.40 32.47 C 2586.77 29.77 2613.16 31.90 2636.70 42.32 C 2651.89 48.89 2665.96 58.65 2676.25 71.73 C 2689.41 87.89 2696.92 108.25 2698.83 128.91 C 2700.37 147.17 2698.68 165.92 2692.17 183.14 C 2685.44 200.70 2673.97 216.61 2658.71 227.71 C 2641.10 240.73 2619.79 248.29 2598.06 250.39 C 2565.93 253.84 2531.62 248.20 2504.95 229.08 C 2482.91 213.95 2468.27 189.18 2464.06 162.93 C 2458.97 133.39 2464.05 101.37 2481.63 76.65 C 2491.01 63.71 2503.45 52.97 2517.70 45.71 C 2531.35 38.81 2546.21 34.33 2561.40 32.47 M 2573.76 71.93 C 2560.53 72.20 2547.61 77.17 2536.99 84.94 C 2522.65 95.43 2514.08 112.45 2511.76 129.83 C 2510.59 137.54 2510.72 145.45 2511.76 153.16 C 2513.52 166.14 2518.35 179.04 2527.01 189.01 C 2537.04 200.77 2551.65 207.79 2566.73 210.35 C 2582.46 212.69 2599.09 211.39 2613.62 204.56 C 2625.26 199.01 2635.30 189.94 2641.59 178.63 C 2649.78 163.97 2652.12 146.55 2650.06 130.02 C 2648.00 113.99 2640.63 98.35 2628.31 87.69 C 2617.12 78.34 2602.86 72.36 2588.22 71.93 C 2583.60 70.38 2578.34 70.24 2573.76 71.93 Z" />
<path fill="#222" opacity="1.00" d=" M 22.24 35.27 C 98.17 35.32 174.11 35.30 250.04 35.28 C 250.39 60.91 250.19 86.56 250.14 112.20 C 237.69 112.35 225.24 112.35 212.79 112.20 C 212.58 98.85 212.79 85.50 212.70 72.15 C 174.09 71.88 135.47 72.06 96.85 72.06 C 96.60 89.35 96.61 106.65 96.85 123.94 C 111.98 124.01 127.11 124.01 142.24 123.94 C 142.67 117.65 142.41 111.35 142.40 105.06 C 154.15 104.55 165.95 104.74 177.72 104.95 C 177.70 129.67 177.68 154.38 177.73 179.09 C 165.96 179.36 154.14 179.55 142.39 178.99 C 142.39 172.73 142.71 166.46 142.21 160.21 C 127.10 160.21 111.99 160.19 96.88 160.22 C 96.60 177.71 96.55 195.23 96.91 212.72 C 135.50 212.68 174.10 212.75 212.69 212.69 C 212.80 199.39 212.58 186.09 212.79 172.80 C 225.24 172.65 237.69 172.65 250.14 172.80 C 250.22 198.12 250.33 223.45 250.08 248.78 C 174.13 248.77 98.18 248.79 22.24 248.77 C 22.20 236.80 22.23 224.83 22.22 212.86 C 32.81 212.49 43.41 212.85 54.00 212.69 C 54.21 209.79 54.27 206.90 54.24 204.00 C 54.09 160.02 54.43 116.04 54.08 72.07 C 43.45 71.89 32.83 72.18 22.20 71.93 C 22.25 59.71 22.19 47.49 22.24 35.27 Z" />
<path fill="#222" opacity="1.00" d=" M 285.09 35.26 C 321.31 35.32 357.54 35.30 393.76 35.27 C 393.81 47.49 393.75 59.71 393.80 71.93 C 382.24 72.22 370.69 71.80 359.14 72.14 C 358.90 118.80 359.05 165.48 359.06 212.15 C 386.37 212.49 413.69 212.20 441.00 212.30 C 450.60 212.40 460.22 211.96 469.80 212.78 C 470.24 197.20 469.80 181.60 470.01 166.02 C 482.67 165.95 495.33 165.95 507.98 166.01 C 508.05 193.67 508.05 221.33 507.98 248.99 C 482.99 249.27 458.00 248.64 433.00 248.78 C 383.69 248.79 334.38 248.75 285.07 248.80 C 284.93 236.62 284.88 224.44 285.09 212.26 C 295.45 212.26 305.80 212.41 316.16 212.20 C 316.31 172.14 316.18 132.07 316.22 92.00 C 316.17 85.35 316.37 78.71 316.08 72.07 C 305.72 71.91 295.37 72.13 285.01 71.98 C 284.99 59.74 284.86 47.50 285.09 35.26 Z" />
<path fill="#222" opacity="1.00" d=" M 664.27 35.40 C 693.69 35.54 723.12 35.40 752.54 35.47 C 769.48 70.19 786.16 105.04 803.43 139.60 C 812.00 157.39 820.76 175.08 829.27 192.89 C 829.58 192.80 830.20 192.61 830.51 192.52 C 846.80 158.47 863.05 124.38 879.24 90.27 C 888.10 72.02 896.38 53.50 905.35 35.31 C 934.47 35.12 963.60 35.25 992.73 35.24 C 992.69 47.41 992.69 59.59 992.73 71.76 C 982.04 71.86 971.35 71.65 960.67 71.85 C 960.37 90.90 960.63 109.96 960.54 129.01 C 960.62 156.74 960.38 184.47 960.66 212.20 C 971.14 212.42 981.61 212.25 992.09 212.27 C 992.50 224.24 992.26 236.24 992.22 248.22 C 967.48 248.39 942.73 248.24 918.00 248.29 C 907.42 248.43 896.82 247.89 886.27 248.81 C 886.17 236.85 886.22 224.89 886.24 212.93 C 896.76 211.63 907.38 212.72 917.94 212.15 C 918.03 181.10 917.95 150.05 917.98 119.00 C 917.88 112.26 918.22 105.50 917.72 98.77 C 914.76 103.01 912.82 107.83 910.44 112.40 C 901.10 130.84 892.04 149.42 883.08 168.05 C 869.79 194.86 856.23 221.55 843.43 248.59 C 832.09 248.81 820.74 248.73 809.39 248.64 C 791.19 212.46 773.43 176.07 755.13 139.94 C 750.59 130.76 746.18 121.52 741.53 112.40 C 739.15 107.84 737.23 103.02 734.28 98.78 C 733.69 114.84 734.19 130.93 734.02 147.00 C 734.05 168.72 733.96 190.43 734.06 212.15 C 744.73 212.49 755.42 212.22 766.10 212.27 C 766.42 224.41 766.42 236.59 766.09 248.73 C 732.14 248.69 698.19 248.69 664.24 248.73 C 664.21 236.58 664.21 224.42 664.24 212.27 C 674.89 212.25 685.55 212.41 696.21 212.21 C 696.42 182.81 696.24 153.40 696.30 124.00 C 696.18 106.74 696.53 89.47 696.12 72.22 C 685.49 72.11 674.85 72.39 664.23 72.09 C 664.24 59.86 664.16 47.63 664.27 35.40 Z" />
<path fill="#222" opacity="1.00" d=" M 1028.06 35.21 C 1103.42 35.24 1178.78 35.21 1254.15 35.22 C 1254.39 60.73 1254.37 86.27 1254.16 111.78 C 1241.84 111.78 1229.52 111.77 1217.21 111.79 C 1217.13 98.50 1217.42 85.21 1217.07 71.93 C 1187.72 71.57 1158.35 71.88 1129.00 71.78 C 1120.09 71.89 1111.17 71.54 1102.28 71.97 C 1102.31 89.21 1102.25 106.45 1102.31 123.69 C 1117.24 123.74 1132.16 123.69 1147.09 123.72 C 1147.51 117.45 1147.21 111.17 1147.27 104.90 C 1158.91 104.51 1170.56 104.72 1182.21 104.79 C 1182.34 129.57 1182.35 154.36 1182.20 179.14 C 1170.56 179.20 1158.91 179.38 1147.28 179.04 C 1147.23 172.72 1147.45 166.38 1147.15 160.06 C 1132.20 160.05 1117.24 159.88 1102.29 160.15 C 1102.27 177.46 1102.30 194.77 1102.28 212.09 C 1125.84 212.58 1149.42 212.16 1173.00 212.30 C 1187.71 212.23 1202.44 212.43 1217.16 212.20 C 1217.33 198.88 1217.15 185.56 1217.23 172.24 C 1229.53 172.20 1241.84 172.23 1254.14 172.22 C 1254.44 197.55 1254.29 222.89 1254.22 248.22 C 1178.82 248.33 1103.42 248.34 1028.02 248.21 C 1028.01 236.27 1027.80 224.32 1028.14 212.38 C 1038.53 212.45 1048.93 212.60 1059.33 212.32 C 1059.63 181.22 1059.37 150.11 1059.46 119.00 C 1059.37 103.28 1059.63 87.56 1059.33 71.85 C 1048.91 71.67 1038.48 71.82 1028.07 71.80 C 1027.91 59.60 1027.92 47.40 1028.06 35.21 Z" />
<path fill="#222" opacity="1.00" d=" M 1291.07 35.20 C 1344.06 35.25 1397.06 35.19 1450.06 35.23 C 1467.10 35.86 1484.69 39.21 1498.99 49.00 C 1506.40 54.26 1512.45 61.46 1516.30 69.71 C 1520.94 80.14 1522.32 91.75 1521.90 103.07 C 1521.45 117.92 1514.70 132.72 1503.02 142.06 C 1495.63 148.18 1486.68 152.16 1477.43 154.50 C 1473.27 155.58 1468.94 155.74 1464.82 156.94 C 1470.00 161.16 1475.34 165.32 1479.04 170.99 C 1484.86 178.76 1488.38 187.88 1492.31 196.67 C 1495.97 204.56 1503.03 211.73 1512.02 212.77 C 1517.92 213.25 1523.89 213.10 1529.78 212.38 C 1529.75 224.48 1529.83 236.58 1529.74 248.68 C 1519.94 250.59 1509.92 251.11 1499.96 250.69 C 1488.05 249.82 1476.34 244.68 1468.22 235.83 C 1457.76 224.95 1452.21 210.70 1445.51 197.44 C 1441.03 188.34 1436.97 178.63 1429.31 171.66 C 1422.99 165.27 1413.91 162.36 1405.06 162.30 C 1391.98 162.25 1378.90 162.33 1365.83 162.26 C 1365.24 178.87 1365.57 195.52 1365.66 212.15 C 1375.82 212.34 1385.98 212.16 1396.15 212.22 C 1396.42 224.21 1396.31 236.21 1396.21 248.20 C 1361.15 248.35 1326.08 248.33 1291.02 248.21 C 1290.99 236.24 1290.84 224.26 1291.11 212.28 C 1301.66 212.19 1312.23 212.53 1322.78 212.12 C 1322.80 165.40 1322.79 118.67 1322.78 71.95 C 1312.21 71.56 1301.63 71.88 1291.07 71.80 C 1290.91 59.60 1290.91 47.40 1291.07 35.20 M 1364.95 75.96 C 1365.01 89.98 1365.05 104.01 1364.94 118.03 C 1364.91 119.77 1364.92 121.60 1365.95 123.10 L 1365.94 123.83 C 1390.29 123.55 1414.65 123.79 1439.00 123.71 C 1444.77 123.57 1450.79 124.46 1456.29 122.21 C 1466.57 118.61 1473.95 107.91 1473.33 96.98 C 1473.29 83.75 1461.27 72.04 1448.08 72.09 C 1420.67 71.76 1393.23 72.30 1365.82 71.82 C 1365.28 73.14 1364.87 74.52 1364.95 75.96 Z" />
<path fill="#222" opacity="1.00" d=" M 1791.22 34.91 C 1819.81 34.62 1848.41 34.87 1877.00 34.79 C 1883.53 34.89 1890.08 34.51 1896.60 35.06 C 1896.48 47.23 1896.56 59.40 1896.56 71.56 C 1885.99 71.61 1875.42 71.38 1864.85 71.67 C 1864.67 100.44 1864.83 129.22 1864.78 158.00 C 1864.85 165.60 1864.21 173.35 1866.27 180.77 C 1869.17 192.71 1878.19 202.53 1889.04 207.92 C 1903.46 214.77 1919.89 215.89 1935.59 214.53 C 1946.54 213.15 1957.68 210.29 1966.73 203.70 C 1978.53 195.57 1985.22 181.24 1984.47 167.00 C 1984.35 135.22 1984.64 103.44 1984.33 71.67 C 1973.89 71.40 1963.45 71.56 1953.01 71.62 C 1952.37 59.39 1952.78 47.11 1952.80 34.86 C 1987.77 34.80 2022.75 34.62 2057.72 34.95 C 2057.66 47.16 2057.76 59.38 2057.67 71.59 C 2047.80 71.63 2037.92 71.29 2028.06 71.75 C 2027.96 100.50 2028.05 129.25 2028.02 158.00 C 2027.97 166.34 2028.33 174.74 2027.09 183.02 C 2025.67 193.14 2022.04 202.93 2016.65 211.60 C 2012.58 218.35 2006.81 223.85 2001.04 229.12 C 1987.02 240.70 1969.16 246.52 1951.45 249.48 C 1926.83 252.80 1901.24 252.14 1877.45 244.51 C 1863.03 239.93 1849.44 231.99 1839.45 220.51 C 1826.72 206.32 1820.69 186.89 1821.21 168.00 C 1821.18 135.89 1821.32 103.78 1821.15 71.67 C 1811.19 71.40 1801.23 71.57 1791.27 71.60 C 1791.16 59.37 1791.24 47.14 1791.22 34.91 Z" />
<path fill="#222" opacity="1.00" d=" M 2071.80 34.86 C 2121.86 34.71 2171.92 34.81 2221.99 34.81 C 2241.76 34.79 2262.68 37.11 2279.45 48.48 C 2291.18 56.16 2298.87 69.04 2301.31 82.72 C 2303.72 96.08 2303.91 110.52 2298.10 123.07 C 2292.12 137.37 2278.90 147.68 2264.40 152.42 C 2258.43 154.72 2252.04 155.31 2245.82 156.50 C 2248.72 159.53 2252.43 161.68 2255.19 164.88 C 2260.27 170.71 2264.61 177.19 2267.76 184.27 C 2271.17 191.10 2273.29 198.76 2278.51 204.55 C 2282.60 209.32 2288.64 212.48 2294.96 212.69 C 2300.20 212.83 2305.47 212.78 2310.70 212.22 C 2310.69 224.33 2310.73 236.44 2310.68 248.54 C 2300.89 250.12 2290.95 250.93 2281.04 250.40 C 2269.38 249.67 2257.86 244.74 2249.77 236.23 C 2239.58 226.20 2234.18 212.75 2227.82 200.24 C 2224.12 192.71 2220.86 184.88 2215.99 178.01 C 2211.33 171.96 2205.56 166.21 2198.05 164.00 C 2188.65 161.05 2178.67 162.31 2169.00 162.02 C 2161.43 162.10 2153.86 161.85 2146.30 162.15 C 2146.28 178.72 2146.28 195.28 2146.30 211.84 C 2156.58 212.20 2166.86 211.81 2177.15 212.03 C 2177.25 224.01 2177.25 235.99 2177.15 247.97 C 2142.03 248.06 2106.90 248.05 2071.78 247.98 C 2071.70 236.06 2071.56 224.13 2071.86 212.22 C 2082.48 212.09 2093.10 212.48 2103.72 212.02 C 2103.71 165.29 2103.68 118.56 2103.74 71.83 C 2093.18 71.20 2082.58 71.65 2072.02 71.62 C 2071.36 59.39 2071.78 47.11 2071.80 34.86 M 2146.13 71.28 C 2145.45 85.83 2146.10 100.43 2145.82 115.00 C 2145.94 117.83 2145.24 120.96 2146.85 123.51 C 2174.56 123.28 2202.28 123.51 2230.00 123.40 C 2243.12 123.09 2254.50 111.06 2254.44 97.99 C 2254.85 84.46 2242.88 71.71 2229.23 71.91 C 2227.82 71.60 2226.43 71.28 2225.04 71.23 C 2198.74 71.35 2172.43 71.25 2146.13 71.28 Z" />
<path fill="#222" opacity="1.00" d=" M 2335.86 34.86 C 2361.24 34.69 2386.62 34.84 2412.00 34.79 C 2422.53 34.95 2433.08 34.45 2443.60 35.06 C 2443.48 47.23 2443.55 59.39 2443.56 71.56 C 2432.79 71.72 2422.01 71.17 2411.26 71.83 C 2411.31 118.56 2411.29 165.29 2411.28 212.02 C 2422.04 212.52 2432.82 212.02 2443.60 212.27 C 2443.51 224.18 2443.49 236.09 2443.61 247.99 C 2430.76 248.68 2417.87 248.10 2405.00 248.29 C 2381.95 248.23 2358.90 248.41 2335.86 248.20 C 2335.77 236.21 2335.66 224.21 2335.92 212.22 C 2346.63 212.11 2357.35 212.43 2368.07 212.07 C 2368.37 165.27 2368.22 118.47 2368.15 71.67 C 2357.45 71.40 2346.75 71.56 2336.06 71.61 C 2335.48 59.38 2335.85 47.11 2335.86 34.86 Z" />
</g>
<g id="#494546ff">
<path fill="#494546" opacity="1.00" d=" M 2146.13 71.28 C 2172.43 71.25 2198.74 71.35 2225.04 71.23 C 2226.43 71.28 2227.82 71.60 2229.23 71.91 C 2201.83 72.12 2174.43 71.92 2147.03 72.02 C 2146.87 89.18 2147.21 106.35 2146.85 123.51 C 2145.24 120.96 2145.94 117.83 2145.82 115.00 C 2146.10 100.43 2145.45 85.83 2146.13 71.28 Z" />
</g>
<g id="#545152ff">
<path fill="#545152" opacity="1.00" d=" M 2573.76 71.93 C 2578.34 70.24 2583.60 70.38 2588.22 71.93 C 2583.39 72.02 2578.57 72.02 2573.76 71.93 Z" />
</g>
<g id="#3f3b3cff">
<path fill="#3f3b3c" opacity="1.00" d=" M 1364.95 75.96 C 1364.87 74.52 1365.28 73.14 1365.82 71.82 C 1366.20 88.91 1365.95 106.01 1365.95 123.10 C 1364.92 121.60 1364.91 119.77 1364.94 118.03 C 1365.05 104.01 1365.01 89.98 1364.95 75.96 Z" />
</g>
<g id="#2c2b2b87">
<path fill="#2c2b2b" opacity="0.53" d=" M 2511.76 153.16 C 2510.72 145.45 2510.59 137.54 2511.76 129.83 C 2512.04 137.61 2511.93 145.38 2511.76 153.16 Z" />
</g>
</svg>
