<?xml version="1.0" encoding="UTF-8" standalone="no"?>
<!DOCTYPE svg PUBLIC "-//W3C//DTD SVG 1.1//EN" "http://www.w3.org/Graphics/SVG/1.1/DTD/svg11.dtd">
<svg version="1.1" xmlns="http://www.w3.org/2000/svg" xmlns:xlink="http://www.w3.org/1999/xlink" preserveAspectRatio="xMidYMid meet" viewBox="0 0 640 640" width="640" height="640"><defs><path d="M323.51 19.99L325.17 20.07L326.84 20.19L328.5 20.33L330.16 20.52L331.82 20.73L333.47 20.97L335.13 21.25L336.77 21.56L338.41 21.91L340.05 22.29L341.68 22.69L343.31 23.14L344.93 23.61L346.54 24.12L348.14 24.66L349.74 25.24L351.32 25.84L352.9 26.48L504.61 89.42L506.18 90.08L507.73 90.76L509.26 91.48L510.77 92.22L512.26 93L513.74 93.8L515.2 94.64L516.64 95.5L518.06 96.38L519.46 97.3L520.84 98.24L522.2 99.21L523.54 100.21L524.86 101.23L526.16 102.27L527.43 103.34L528.69 104.44L529.92 105.56L531.13 106.71L532.32 107.87L533.48 109.07L534.63 110.28L535.74 111.52L536.84 112.78L537.91 114.06L538.95 115.36L539.97 116.68L540.97 118.03L541.94 119.39L542.88 120.78L543.8 122.18L544.69 123.61L545.56 125.05L546.4 126.51L547.21 127.99L547.99 129.49L548.75 131.01L549.48 132.54L550.18 134.09L550.85 135.65L613.59 287.37L614.21 288.94L614.81 290.53L615.37 292.13L615.9 293.73L616.39 295.34L616.86 296.96L617.29 298.58L617.69 300.22L618.06 301.85L618.4 303.49L618.7 305.14L618.97 306.79L619.21 308.45L619.42 310.11L619.6 311.77L619.74 313.43L619.86 315.09L619.94 316.76L619.98 318.43L620 320.1L619.98 321.77L619.94 323.43L619.86 325.1L619.74 326.76L619.6 328.43L619.42 330.09L619.21 331.75L618.97 333.4L618.7 335.05L618.4 336.7L618.06 338.34L617.69 339.98L617.29 341.61L616.86 343.23L616.39 344.85L615.9 346.46L615.37 348.07L614.81 349.66L614.21 351.25L613.59 352.83L550.65 504.54L550 506.11L549.31 507.66L548.59 509.19L547.85 510.7L547.07 512.19L546.27 513.67L545.44 515.13L544.58 516.57L543.69 517.99L542.77 519.39L541.83 520.77L540.86 522.13L539.87 523.47L538.85 524.79L537.8 526.08L536.73 527.36L535.63 528.62L534.51 529.85L533.37 531.06L532.2 532.25L531.01 533.41L529.79 534.55L528.55 535.67L527.29 536.77L526.01 537.84L524.71 538.88L523.39 539.9L522.04 540.9L520.68 541.87L519.29 542.81L517.89 543.73L516.46 544.62L515.02 545.49L513.56 546.33L512.08 547.14L510.58 547.92L509.07 548.68L507.53 549.41L505.98 550.1L504.42 550.77L352.71 613.52L351.13 614.16L349.54 614.76L347.95 615.34L346.34 615.88L344.73 616.39L343.11 616.86L341.49 617.31L339.86 617.71L338.22 618.09L336.58 618.44L334.93 618.75L333.28 619.03L331.63 619.27L329.97 619.48L328.31 619.67L326.64 619.81L324.98 619.93L323.31 620.01L321.64 620.06L319.98 620.07L318.31 620.06L316.64 620.01L314.97 619.93L313.31 619.81L311.64 619.67L309.98 619.48L308.33 619.27L306.67 619.03L305.02 618.75L303.37 618.44L301.73 618.09L300.09 617.71L298.46 617.31L296.84 616.86L295.22 616.39L293.61 615.88L292 615.34L290.41 614.76L288.82 614.16L287.24 613.52L135.53 550.58L133.97 549.92L132.42 549.24L130.89 548.52L129.38 547.78L127.88 547L126.4 546.2L124.95 545.36L123.51 544.5L122.09 543.62L120.69 542.7L119.31 541.76L117.95 540.79L116.61 539.79L115.29 538.77L113.99 537.73L112.71 536.66L111.46 535.56L110.23 534.44L109.01 533.29L107.83 532.13L106.66 530.93L105.52 529.72L104.4 528.48L103.31 527.22L102.24 525.94L101.19 524.64L100.17 523.32L99.18 521.97L98.21 520.61L97.26 519.22L96.34 517.82L95.45 516.39L94.59 514.95L93.75 513.49L92.94 512.01L92.15 510.51L91.4 508.99L90.67 507.46L89.97 505.91L89.3 504.35L26.56 352.63L25.92 351.06L25.31 349.47L24.74 347.87L24.2 346.27L23.69 344.66L23.21 343.04L22.77 341.42L22.36 339.78L21.98 338.15L21.64 336.51L21.33 334.86L21.05 333.21L20.8 331.55L20.59 329.89L20.41 328.23L20.26 326.57L20.15 324.91L20.07 323.24L20.02 321.57L20 319.9L20.02 318.23L20.07 316.57L20.15 314.9L20.26 313.24L20.41 311.57L20.59 309.91L20.8 308.25L21.05 306.6L21.33 304.95L21.64 303.3L21.98 301.66L22.36 300.02L22.77 298.39L23.21 296.77L23.69 295.15L24.2 293.54L24.74 291.93L25.31 290.34L25.92 288.75L26.56 287.17L89.49 135.46L90.15 133.89L90.84 132.34L91.55 130.81L92.3 129.3L93.07 127.81L93.88 126.33L94.71 124.87L95.57 123.43L96.46 122.01L97.37 120.61L98.32 119.23L99.28 117.87L100.28 116.53L101.3 115.21L102.35 113.92L103.42 112.64L104.51 111.38L105.64 110.15L106.78 108.94L107.95 107.75L109.14 106.59L110.35 105.45L111.59 104.33L112.85 103.23L114.13 102.16L115.44 101.12L116.76 100.1L118.1 99.1L119.47 98.13L120.85 97.19L122.26 96.27L123.68 95.38L125.13 94.51L126.59 93.67L128.07 92.86L129.56 92.08L131.08 91.32L132.61 90.59L134.16 89.9L135.73 89.23L287.44 26.48L289.02 25.84L290.6 25.24L292.2 24.66L293.8 24.12L295.41 23.61L297.03 23.14L298.66 22.69L300.29 22.29L301.93 21.91L303.57 21.56L305.21 21.25L306.87 20.97L308.52 20.73L310.18 20.52L311.84 20.33L313.5 20.19L315.17 20.07L316.83 19.99L318.5 19.94L320.17 19.93L321.84 19.94L323.51 19.99ZM319.13 81.5L318.66 81.55L318.19 81.62L317.72 81.71L317.26 81.82L316.8 81.95L316.34 82.11L315.9 82.28L315.45 82.48L315.02 82.69L314.59 82.92L314.17 83.18L313.76 83.45L313.36 83.75L312.97 84.07L312.59 84.4L312.22 84.76L311.87 85.14L311.53 85.53L279.86 125.16L174.19 168.87L173.99 168.96L173.79 169.05L173.59 169.15L173.39 169.25L173.2 169.35L173.01 169.46L172.82 169.57L172.63 169.68L172.45 169.8L172.26 169.92L172.09 170.04L171.91 170.17L171.74 170.3L171.56 170.43L171.4 170.57L171.23 170.71L171.07 170.85L170.91 171L170.75 171.15L170.59 171.3L170.44 171.45L170.29 171.61L170.15 171.77L170.01 171.93L169.87 172.1L169.73 172.27L169.6 172.44L169.47 172.61L169.34 172.79L169.22 172.97L169.1 173.15L168.98 173.33L168.87 173.52L168.76 173.71L168.65 173.9L168.55 174.09L168.45 174.29L168.35 174.49L168.26 174.69L168.17 174.89L109.7 315.73L109.61 315.93L109.53 316.14L109.45 316.34L109.38 316.55L109.31 316.75L109.25 316.96L109.19 317.17L109.14 317.38L109.09 317.59L109.04 317.8L109 318.01L108.96 318.22L108.93 318.43L108.9 318.64L108.88 318.85L108.86 319.06L108.84 319.27L108.83 319.48L108.82 319.69L108.82 319.9L108.82 320.11L108.83 320.33L108.84 320.54L108.86 320.75L108.88 320.96L108.9 321.17L108.93 321.38L108.96 321.59L109 321.8L109.04 322.01L109.09 322.22L109.14 322.43L109.19 322.64L109.25 322.84L109.31 323.05L109.38 323.26L109.45 323.46L109.53 323.67L109.61 323.88L109.7 324.08L167.97 465.11L168.06 465.31L168.15 465.51L168.25 465.71L168.35 465.91L168.45 466.1L168.56 466.29L168.67 466.48L168.79 466.67L168.9 466.85L169.02 467.03L169.15 467.21L169.27 467.39L169.4 467.56L169.54 467.73L169.67 467.9L169.81 468.07L169.96 468.23L170.1 468.39L170.25 468.55L170.4 468.7L170.56 468.85L170.71 469L170.87 469.15L171.04 469.29L171.2 469.43L171.37 469.57L171.54 469.7L171.71 469.83L171.89 469.96L172.07 470.08L172.25 470.2L172.44 470.32L172.62 470.43L172.81 470.54L173 470.65L173.2 470.75L173.39 470.85L173.59 470.95L173.79 471.04L173.99 471.13L279.67 514.84L279.67 514.85L279.67 514.88L279.67 514.89L279.67 514.9L279.67 514.91L279.67 514.92L279.67 514.93L279.67 514.94L279.67 514.95L279.67 514.96L279.67 514.97L279.67 514.98L279.68 514.99L279.68 514.99L279.68 515L279.68 515.01L279.69 515.02L279.69 515.02L279.69 515.03L279.7 515.04L279.7 515.05L279.71 515.05L279.71 515.06L279.72 515.07L279.72 515.08L279.73 515.08L279.73 515.09L279.74 515.1L279.75 515.11L279.76 515.12L279.77 515.13L279.78 515.14L279.79 515.15L279.8 515.16L279.81 515.17L279.82 515.19L279.85 515.21L279.86 515.23L311.33 554.47L311.67 554.88L312.03 555.27L312.4 555.64L312.78 555.99L313.17 556.31L313.58 556.62L313.99 556.91L314.42 557.17L314.85 557.41L315.29 557.63L315.74 557.83L316.19 558.01L316.65 558.17L317.12 558.31L317.59 558.43L318.06 558.52L318.54 558.6L319.02 558.65L319.5 558.68L319.98 558.69L320.46 558.68L320.94 558.65L321.41 558.6L321.89 558.52L322.36 558.43L322.83 558.31L323.3 558.17L323.76 558.01L324.21 557.83L324.66 557.63L325.1 557.41L325.54 557.17L325.96 556.91L326.37 556.62L326.78 556.31L327.17 555.99L327.55 555.64L327.92 555.27L328.28 554.88L328.62 554.47L359.7 515.23L359.73 515.2L359.76 515.17L359.78 515.14L359.81 515.11L359.84 515.08L359.86 515.05L359.89 515.02L359.91 514.99L359.94 514.96L359.96 514.93L359.98 514.91L360 514.88L360.02 514.85L360.05 514.82L360.07 514.79L360.09 514.76L360.11 514.73L360.12 514.7L360.14 514.67L360.16 514.64L360.18 514.61L360.2 514.58L360.21 514.56L360.23 514.53L360.25 514.5L360.27 514.47L360.28 514.44L360.3 514.41L360.31 514.38L360.33 514.35L360.34 514.32L360.36 514.29L360.37 514.26L360.39 514.24L360.4 514.21L360.42 514.18L360.43 514.15L360.45 514.12L360.46 514.09L360.48 514.06L464.21 471.13L464.41 471.04L464.61 470.95L464.81 470.85L465.01 470.75L465.2 470.65L465.39 470.54L465.58 470.43L465.77 470.32L465.95 470.2L466.13 470.08L466.31 469.96L466.49 469.83L466.66 469.7L466.83 469.57L467 469.43L467.17 469.29L467.33 469.15L467.49 469L467.65 468.85L467.8 468.7L467.95 468.55L468.1 468.39L468.25 468.23L468.39 468.07L468.53 467.9L468.67 467.73L468.8 467.56L468.93 467.39L469.06 467.21L469.18 467.03L469.3 466.85L469.42 466.67L469.53 466.48L469.64 466.29L469.75 466.1L469.85 465.91L469.95 465.71L470.05 465.51L470.14 465.31L470.23 465.11L501.51 389.54L501.72 389L501.91 388.46L502.06 387.92L502.19 387.37L502.28 386.83L502.35 386.29L502.39 385.75L502.4 385.21L502.38 384.67L502.33 384.14L502.26 383.62L502.17 383.1L502.05 382.59L501.9 382.09L501.73 381.59L501.54 381.1L501.33 380.63L501.09 380.16L500.84 379.71L500.56 379.27L500.26 378.85L499.94 378.43L499.61 378.04L499.25 377.65L498.88 377.29L498.49 376.94L498.09 376.61L497.67 376.31L497.23 376.02L496.78 375.75L496.31 375.5L495.84 375.28L495.35 375.08L494.84 374.9L494.33 374.75L493.8 374.62L493.26 374.52L492.72 374.45L492.16 374.41L491.6 374.39L432.93 374.39L432.6 374.4L432.27 374.41L431.94 374.44L431.61 374.47L431.29 374.52L430.97 374.57L430.65 374.63L430.34 374.71L430.02 374.79L429.72 374.88L429.41 374.98L429.11 375.09L428.82 375.21L428.52 375.33L428.24 375.47L427.95 375.61L427.67 375.76L427.4 375.92L427.13 376.09L426.86 376.26L426.6 376.44L426.35 376.63L426.1 376.83L425.86 377.03L425.62 377.25L425.39 377.46L425.16 377.69L424.94 377.92L424.73 378.16L424.52 378.41L424.32 378.66L424.13 378.92L423.94 379.18L423.76 379.45L423.59 379.73L423.42 380.01L423.26 380.3L423.11 380.59L422.97 380.89L422.83 381.19L412.15 406.83L412.06 407.03L411.97 407.24L411.87 407.43L411.77 407.63L411.67 407.82L411.56 408.02L411.45 408.2L411.34 408.39L411.22 408.57L411.1 408.76L410.98 408.94L410.85 409.11L410.72 409.29L410.58 409.46L410.45 409.63L410.31 409.79L410.17 409.95L410.02 410.11L409.87 410.27L409.72 410.43L409.57 410.58L409.41 410.73L409.25 410.87L409.09 411.01L408.92 411.15L408.75 411.29L408.58 411.42L408.41 411.55L408.23 411.68L408.05 411.8L407.87 411.92L407.69 412.04L407.5 412.15L407.31 412.27L407.12 412.37L406.93 412.48L406.73 412.58L406.53 412.67L406.33 412.76L406.13 412.85L323.38 447.04L323.17 447.13L322.97 447.21L322.76 447.29L322.55 447.36L322.35 447.43L322.14 447.49L321.93 447.55L321.72 447.6L321.51 447.65L321.31 447.7L321.1 447.74L320.89 447.78L320.68 447.81L320.46 447.84L320.25 447.86L320.04 447.88L319.83 447.9L319.62 447.91L319.41 447.91L319.2 447.92L318.99 447.91L318.78 447.91L318.57 447.9L318.35 447.88L318.14 447.86L317.93 447.84L317.72 447.81L317.51 447.78L317.3 447.74L317.09 447.7L316.88 447.65L316.67 447.6L316.47 447.55L316.26 447.49L316.05 447.43L315.84 447.36L315.64 447.29L315.43 447.21L315.23 447.13L315.02 447.04L232.27 413.24L232.07 413.15L231.87 413.06L231.67 412.96L231.47 412.86L231.28 412.76L231.09 412.65L230.9 412.54L230.71 412.43L230.53 412.31L230.35 412.19L230.17 412.07L229.99 411.94L229.82 411.81L229.65 411.68L229.48 411.54L229.31 411.4L229.15 411.26L228.99 411.11L228.83 410.97L228.68 410.81L228.53 410.66L228.38 410.5L228.23 410.34L228.09 410.18L227.95 410.01L227.81 409.85L227.68 409.67L227.55 409.5L227.42 409.32L227.3 409.14L227.18 408.96L227.06 408.78L226.95 408.59L226.84 408.4L226.73 408.21L226.63 408.02L226.53 407.82L226.43 407.62L226.34 407.42L226.25 407.22L192.06 324.47L191.97 324.26L191.89 324.06L191.82 323.85L191.75 323.65L191.68 323.44L191.61 323.23L191.56 323.02L191.5 322.82L191.45 322.61L191.4 322.4L191.36 322.19L191.33 321.98L191.29 321.77L191.26 321.56L191.24 321.35L191.22 321.14L191.21 320.92L191.19 320.71L191.19 320.5L191.19 320.29L191.19 320.08L191.19 319.87L191.21 319.66L191.22 319.45L191.24 319.24L191.26 319.03L191.29 318.81L191.33 318.6L191.36 318.39L191.4 318.18L191.45 317.98L191.5 317.77L191.56 317.56L191.61 317.35L191.68 317.14L191.75 316.94L191.82 316.73L191.89 316.52L191.97 316.32L192.06 316.11L226.25 233.36L226.34 233.16L226.43 232.96L226.53 232.76L226.63 232.56L226.73 232.37L226.84 232.18L226.95 231.99L227.06 231.8L227.18 231.62L227.3 231.44L227.42 231.26L227.55 231.08L227.68 230.91L227.81 230.74L227.95 230.57L228.09 230.4L228.23 230.24L228.38 230.08L228.53 229.92L228.68 229.77L228.83 229.62L228.99 229.47L229.15 229.32L229.31 229.18L229.48 229.04L229.65 228.9L229.82 228.77L229.99 228.64L230.17 228.51L230.35 228.39L230.53 228.27L230.71 228.15L230.9 228.04L231.09 227.93L231.28 227.82L231.47 227.72L231.67 227.62L231.87 227.52L232.07 227.43L232.27 227.34L315.02 193.15L315.23 193.07L315.43 192.99L315.64 192.91L315.84 192.84L316.05 192.77L316.26 192.71L316.47 192.65L316.67 192.59L316.88 192.54L317.09 192.5L317.3 192.45L317.51 192.42L317.72 192.38L317.93 192.36L318.14 192.33L318.35 192.31L318.57 192.3L318.78 192.29L318.99 192.28L319.2 192.28L319.41 192.28L319.62 192.29L319.83 192.3L320.04 192.31L320.25 192.33L320.46 192.36L320.68 192.38L320.89 192.42L321.1 192.45L321.31 192.5L321.51 192.54L321.72 192.59L321.93 192.65L322.14 192.71L322.35 192.77L322.55 192.84L322.76 192.91L322.97 192.99L323.17 193.07L323.38 193.15L406.13 227.34L406.33 227.43L406.53 227.52L406.73 227.62L406.93 227.72L407.12 227.82L407.31 227.93L407.5 228.04L407.69 228.15L407.87 228.27L408.05 228.39L408.23 228.51L408.41 228.64L408.58 228.77L408.75 228.9L408.92 229.04L409.09 229.18L409.25 229.32L409.41 229.47L409.57 229.62L409.72 229.77L409.87 229.92L410.02 230.08L410.17 230.24L410.31 230.4L410.45 230.57L410.58 230.74L410.72 230.91L410.85 231.08L410.98 231.26L411.1 231.44L411.22 231.62L411.34 231.8L411.45 231.99L411.56 232.18L411.67 232.37L411.77 232.56L411.87 232.76L411.97 232.96L412.06 233.16L412.15 233.36L422.83 259L422.97 259.31L423.11 259.61L423.26 259.9L423.42 260.19L423.59 260.47L423.76 260.74L423.94 261.01L424.13 261.28L424.32 261.54L424.52 261.79L424.73 262.03L424.94 262.27L425.16 262.5L425.39 262.73L425.62 262.95L425.86 263.16L426.1 263.36L426.35 263.56L426.6 263.75L426.86 263.93L427.13 264.11L427.4 264.27L427.67 264.43L427.95 264.58L428.24 264.73L428.52 264.86L428.82 264.99L429.11 265.11L429.41 265.21L429.72 265.31L430.02 265.41L430.34 265.49L430.65 265.56L430.97 265.62L431.29 265.68L431.61 265.72L431.94 265.76L432.27 265.78L432.6 265.8L432.93 265.8L491.6 265.8L492.18 265.79L492.74 265.74L493.3 265.67L493.85 265.57L494.38 265.45L494.91 265.29L495.42 265.12L495.91 264.92L496.4 264.69L496.86 264.45L497.32 264.18L497.76 263.89L498.18 263.58L498.59 263.25L498.98 262.9L499.35 262.54L499.7 262.16L500.04 261.76L500.36 261.35L500.66 260.92L500.93 260.48L501.19 260.03L501.43 259.57L501.64 259.09L501.83 258.6L502 258.11L502.15 257.6L502.27 257.09L502.37 256.58L502.44 256.05L502.49 255.52L502.51 254.99L502.51 254.45L502.48 253.91L502.42 253.37L502.33 252.82L502.22 252.28L502.08 251.73L501.9 251.19L501.7 250.65L470.42 175.09L470.34 174.88L470.24 174.68L470.15 174.48L470.05 174.29L469.94 174.09L469.84 173.9L469.73 173.71L469.61 173.53L469.5 173.34L469.37 173.16L469.25 172.98L469.12 172.81L468.99 172.63L468.86 172.46L468.72 172.29L468.58 172.13L468.44 171.96L468.3 171.8L468.15 171.65L468 171.49L467.84 171.34L467.69 171.19L467.52 171.05L467.36 170.9L467.2 170.76L467.03 170.63L466.86 170.49L466.68 170.36L466.51 170.24L466.33 170.11L466.15 169.99L465.96 169.88L465.78 169.76L465.59 169.65L465.39 169.55L465.2 169.44L465 169.34L464.81 169.25L464.61 169.15L464.4 169.06L360.87 126.13L360.85 126.1L360.84 126.08L360.82 126.05L360.81 126.02L360.79 126L360.78 125.97L360.76 125.95L360.75 125.92L360.73 125.9L360.72 125.87L360.71 125.85L360.69 125.83L360.68 125.8L360.66 125.78L360.65 125.76L360.63 125.74L360.62 125.71L360.6 125.69L360.59 125.67L360.56 125.63L360.55 125.6L360.53 125.58L360.52 125.56L360.5 125.54L360.49 125.52L360.47 125.49L360.46 125.47L360.44 125.45L360.43 125.42L360.41 125.4L360.4 125.38L360.39 125.35L360.37 125.33L360.36 125.3L360.34 125.27L360.33 125.25L360.31 125.22L360.3 125.19L360.28 125.16L328.62 85.53L328.28 85.14L327.92 84.76L327.56 84.4L327.18 84.07L326.79 83.75L326.39 83.45L325.97 83.18L325.56 82.92L325.13 82.69L324.69 82.48L324.25 82.28L323.8 82.11L323.35 81.95L322.89 81.82L322.43 81.71L321.96 81.62L321.49 81.55L321.02 81.5L320.55 81.47L320.07 81.46L319.6 81.47L319.13 81.5Z" id="arAD0A81f"></path></defs><g><g><g><use xlink:href="#arAD0A81f" opacity="1" fill="#353535" fill-opacity="1"></use><g><use xlink:href="#arAD0A81f" opacity="1" fill-opacity="0" stroke="#000000" stroke-width="1" stroke-opacity="0"></use></g></g><g><use xlink:href="#au3XKKYw" opacity="1" fill="#fdfdfd" fill-opacity="1"></use><g><use xlink:href="#au3XKKYw" opacity="1" fill-opacity="0" stroke="#000000" stroke-width="1" stroke-opacity="0"></use></g></g></g></g></svg>