<svg id="Layer_1" enable-background="new 0 0 256 256" height="512" viewBox="0 0 256 256" width="512" xmlns="http://www.w3.org/2000/svg"><path d="m92 199.675v-143.351c0-3.492 2.832-6.324 6.325-6.324h-50.325c-5.523 0-10 4.477-10 10v136c0 5.523 4.477 10 10 10h50.325c-3.493 0-6.325-2.832-6.325-6.325z" fill="#a4d4a0"/><path d="m208 50h-50.325c3.493 0 6.325 2.832 6.325 6.324v143.351c0 3.493-2.832 6.325-6.325 6.325h50.325c5.523 0 10-4.477 10-10v-136c0-5.523-4.477-10-10-10z" fill="#419b46"/><path d="m164 199.675v-143.351c0-3.493-2.832-6.324-6.325-6.324h-59.35c-3.493 0-6.325 2.832-6.325 6.324v143.351c0 3.493 2.832 6.325 6.325 6.325h59.351c3.492 0 6.324-2.832 6.324-6.325z" fill="#65bc49"/><path d="m208 209h-160c-7.168 0-13-5.832-13-13v-136c0-7.168 5.832-13 13-13h160c7.168 0 13 5.832 13 13v136c0 7.168-5.832 13-13 13zm-160-156c-3.86 0-7 3.14-7 7v136c0 3.86 3.14 7 7 7h160c3.86 0 7-3.14 7-7v-136c0-3.86-3.14-7-7-7z" fill="#1c2d6b"/><path d="m67.995 104h18v48h-18z" fill="#89aadb"/><path d="m109.997 104h18v48h-18z" fill="#4b67b0"/><path d="m85.995 104h24.003v48h-24.003z" fill="#6287c5"/><g fill="#1c2d6b"><path d="m127.998 155h-60.003c-1.657 0-3-1.343-3-3v-48c0-1.657 1.343-3 3-3h60.003c1.657 0 3 1.343 3 3v48c0 1.657-1.344 3-3 3zm-57.003-6h54.003v-42h-54.003z"/><path d="m73.998 107c-1.657 0-3-1.343-3-3v-12c0-1.657 1.343-3 3-3s3 1.343 3 3v12c0 1.657-1.344 3-3 3z"/><path d="m85.998 107c-1.657 0-3-1.343-3-3v-12c0-1.657 1.343-3 3-3s3 1.343 3 3v12c0 1.657-1.344 3-3 3z"/><path d="m97.998 107c-1.657 0-3-1.343-3-3v-12c0-1.657 1.343-3 3-3s3 1.343 3 3v12c0 1.657-1.344 3-3 3z"/><path d="m109.998 107c-1.657 0-3-1.343-3-3v-12c0-1.657 1.343-3 3-3s3 1.343 3 3v12c0 1.657-1.344 3-3 3z"/><path d="m121.998 107c-1.657 0-3-1.343-3-3v-12c0-1.657 1.343-3 3-3s3 1.343 3 3v12c0 1.657-1.344 3-3 3z"/><path d="m73.998 167c-1.657 0-3-1.343-3-3v-12c0-1.657 1.343-3 3-3s3 1.343 3 3v12c0 1.657-1.344 3-3 3z"/><path d="m85.998 167c-1.657 0-3-1.343-3-3v-12c0-1.657 1.343-3 3-3s3 1.343 3 3v12c0 1.657-1.344 3-3 3z"/><path d="m97.998 167c-1.657 0-3-1.343-3-3v-12c0-1.657 1.343-3 3-3s3 1.343 3 3v12c0 1.657-1.344 3-3 3z"/><path d="m109.998 167c-1.657 0-3-1.343-3-3v-12c0-1.657 1.343-3 3-3s3 1.343 3 3v12c0 1.657-1.344 3-3 3z"/><path d="m121.998 167c-1.657 0-3-1.343-3-3v-12c0-1.657 1.343-3 3-3s3 1.343 3 3v12c0 1.657-1.344 3-3 3z"/><path d="m139.998 113h-12c-1.657 0-3-1.343-3-3s1.343-3 3-3h12c1.657 0 3 1.343 3 3s-1.344 3-3 3z"/><path d="m139.998 125h-12c-1.657 0-3-1.343-3-3s1.343-3 3-3h12c1.657 0 3 1.343 3 3s-1.344 3-3 3z"/><path d="m139.998 137h-12c-1.657 0-3-1.343-3-3s1.343-3 3-3h12c1.657 0 3 1.343 3 3s-1.344 3-3 3z"/><path d="m139.998 149h-12c-1.657 0-3-1.343-3-3s1.343-3 3-3h12c1.657 0 3 1.343 3 3s-1.344 3-3 3z"/><path d="m67.998 113h-12c-1.657 0-3-1.343-3-3s1.343-3 3-3h12c1.657 0 3 1.343 3 3s-1.344 3-3 3z"/><path d="m67.998 125h-12c-1.657 0-3-1.343-3-3s1.343-3 3-3h12c1.657 0 3 1.343 3 3s-1.344 3-3 3z"/><path d="m67.998 137h-12c-1.657 0-3-1.343-3-3s1.343-3 3-3h12c1.657 0 3 1.343 3 3s-1.344 3-3 3z"/><path d="m67.998 149h-12c-1.657 0-3-1.343-3-3s1.343-3 3-3h12c1.657 0 3 1.343 3 3s-1.344 3-3 3z"/><path d="m155 209c-1.657 0-3-1.343-3-3v-24c0-.795.316-1.559.879-2.121l23.121-23.122v-16.757c0-1.657 1.343-3 3-3s3 1.343 3 3v18c0 .795-.316 1.559-.879 2.121l-23.121 23.122v22.757c0 1.657-1.343 3-3 3z"/><path d="m173 209c-1.657 0-3-1.343-3-3v-18c0-.795.316-1.559.879-2.121l23.121-23.122v-34.757c0-1.657 1.343-3 3-3s3 1.343 3 3v36c0 .795-.316 1.559-.879 2.121l-23.121 23.122v16.757c0 1.657-1.343 3-3 3z"/><path d="m164 111.774c-1.657 0-3-1.343-3-3v-16.066l-11.683-23.366c-.209-.417-.317-.876-.317-1.342v-18c0-1.657 1.343-3 3-3s3 1.343 3 3v17.292l11.683 23.366c.209.417.317.876.317 1.342v16.774c0 1.657-1.343 3-3 3z"/><path d="m188.002 89c-1.101 0-2.16-.607-2.686-1.659l-6-12c-.208-.416-.316-.875-.316-1.341v-24c0-1.657 1.343-3 3-3s3 1.343 3 3v23.292l5.683 11.366c.741 1.482.141 3.284-1.341 4.025-.431.215-.889.317-1.34.317z"/><path d="m61.998 83h-23.998c-1.657 0-3-1.343-3-3s1.343-3 3-3h23.089l17.247-11.496c.493-.329 1.072-.504 1.664-.504h24c1.657 0 3 1.343 3 3s-1.343 3-3 3h-23.092l-17.246 11.496c-.493.329-1.072.504-1.664.504z"/><path d="m116 191h-48.005c-.466 0-.925-.108-1.342-.317l-11.361-5.683h-17.292c-1.657 0-3-1.343-3-3s1.343-3 3-3h18c.466 0 .925.108 1.342.317l11.361 5.683h47.297c1.657 0 3 1.343 3 3s-1.343 3-3 3z"/></g><circle cx="109.997" cy="68" fill="#eee045" r="6"/><circle cx="164" cy="116" fill="#eee045" r="6"/><circle cx="179" cy="134" fill="#eee045" r="6"/><circle cx="122" cy="188" fill="#eee045" r="6"/><circle cx="196.999" cy="122" fill="#eee045" r="6"/><circle cx="188" cy="92" fill="#eee045" r="6"/><path d="m109.998 77c-4.962 0-9-4.038-9-9s4.038-9 9-9 9 4.038 9 9-4.038 9-9 9zm0-12c-1.654 0-3 1.346-3 3s1.346 3 3 3 3-1.346 3-3-1.346-3-3-3z" fill="#1c2d6b"/><path d="m164 125c-4.962 0-9-4.038-9-9s4.038-9 9-9 9 4.038 9 9-4.038 9-9 9zm0-12c-1.654 0-3 1.346-3 3s1.346 3 3 3 3-1.346 3-3-1.346-3-3-3z" fill="#1c2d6b"/><path d="m179 143c-4.962 0-9-4.038-9-9s4.038-9 9-9 9 4.038 9 9-4.038 9-9 9zm0-12c-1.654 0-3 1.346-3 3s1.346 3 3 3 3-1.346 3-3-1.346-3-3-3z" fill="#1c2d6b"/><path d="m122 197c-4.962 0-9-4.038-9-9s4.038-9 9-9 9 4.038 9 9-4.038 9-9 9zm0-12c-1.654 0-3 1.346-3 3s1.346 3 3 3 3-1.346 3-3-1.346-3-3-3z" fill="#1c2d6b"/><path d="m196.999 131c-4.962 0-9-4.038-9-9s4.038-9 9-9 9 4.038 9 9-4.038 9-9 9zm0-12c-1.654 0-3 1.346-3 3s1.346 3 3 3 3-1.346 3-3-1.346-3-3-3z" fill="#1c2d6b"/><path d="m188 101c-4.962 0-9-4.038-9-9s4.038-9 9-9 9 4.038 9 9-4.038 9-9 9zm0-12c-1.654 0-3 1.346-3 3s1.346 3 3 3 3-1.346 3-3-1.346-3-3-3z" fill="#1c2d6b"/></svg>