<?xml version="1.0" encoding="utf-8"?>
<!-- Generator: Adobe Illustrator 19.0.0, SVG Export Plug-In . SVG Version: 6.00 Build 0)  -->
<svg version="1.1" id="Capa_1" xmlns="http://www.w3.org/2000/svg" xmlns:xlink="http://www.w3.org/1999/xlink" x="0px" y="0px"
	 viewBox="0 0 1551.9 587.3" style="enable-background:new 0 0 1551.9 587.3;" xml:space="preserve">
<style type="text/css">
	.st0{fill:#222;}
</style>
<path id="XMLID_20_" class="st0" d="M596.5,401.1c-9.6,0-17.6-4.5-20.7-12.2c-3.4-7.7-1.3-16.8,5.6-23.9c18.6-20,36.6-35,55.1-51
	c9.9-8.4,20.2-17.1,30.8-26.6c15.7-12.2,22.9-32,18-46.8c-4-11.5-15-18.2-30.6-18.2c-13.2,0-26.7,8-34.3,20.3
	c-4.2,6.6-11,10.4-18.2,10.4c-7.3,0-14.1-3.5-17.8-9.6c-4.3-6.3-4.5-15-0.3-24.3c12.9-25.3,38.5-39.7,70.7-39.7
	c34.5,0,62,16.3,73.2,43.7c12.1,29.8,1.6,66.1-27.6,94.5c-20.7,17.7-36.1,29-55.7,40.9c5.2-0.2,10.3-0.6,15.4-0.9
	c7.7-0.5,15.3-1,22.5-1h36.4c13.9,0,21.2,11.9,21.2,23.1c0,5.7-1.8,10.7-5.1,14.6c-3.9,4.3-9.2,6.6-16.1,6.6H596.5z"/>
<path class="st0" d="M875.5,402.5c-10.7,0-22.4-6.3-22.4-19.9v-24.7h-86.9c-11.5,0-20-4.2-23.6-11.8c-4.1-8.2-2-18.6,5.8-28.2
	l105.1-127c6-6.2,12-11.3,24-11.3c15.1,0,20.5,12.8,20.5,23.8v111.3H910c6.3,0,11.4,2.3,15.3,6.6c3,3.8,4.8,9,4.8,14.4
	c0,11.1-6.9,22.3-20,22.3h-12.1v24.7C897.9,395.6,886.7,402.5,875.5,402.5 M855.4,314.2l0.5-65l-54.1,65H855.4z"/>
<path id="XMLID_17_" class="st0" d="M753.6,587.3c-69.9,0-137.5-24.9-190.4-70.1C510.6,472.5,475.4,410.5,464,343
	c-2-11.4,5.5-22.1,16.9-23.9c11.3-2,22,5.6,23.9,16.9c20.6,121.5,125,209.7,248.7,209.7c139,0,252.2-113,252.2-252.1
	c0-138.8-113.1-252-252.2-252c-60.2,0-118.3,21.5-164,60.6c-45,38.5-75.1,92.1-84.7,150.3c-2,11.2-12.8,19-23.9,17.1
	c-11.4-1.9-19-12.5-17.1-23.8C475,177.8,510,115.6,562.6,70.6C615.6,25,683.5,0,753.6,0c161.8,0,293.8,131.6,293.8,293.6
	C1047.3,455.6,915.4,587.3,753.6,587.3"/>
<polygon id="XMLID_16_" class="st0" points="1210,253.8 1210,332.8 1191.1,332.8 1191.1,302.1 1161.4,302.1 1161.4,332.8
	1142.5,332.8 1142.5,253.8 1161.4,253.8 1161.4,284.5 1191.1,284.5 1191.1,253.8 "/>
<path class="st0" d="M1268.5,252.2c22.7,0,41.1,17.2,41.1,41.1c0,23.8-18.4,41-41.1,41c-22.6,0-41-17.2-41-41
	C1227.5,269.4,1245.9,252.2,1268.5,252.2 M1268.5,315.6c13,0,21.4-9.1,21.4-22.3c0-13.3-8.4-22.3-21.4-22.3
	c-12.9,0-21.1,9-21.1,22.3C1247.4,306.5,1255.6,315.6,1268.5,315.6"/>
<path class="st0" d="M1370.5,332.7l-14.7-25.7h-9.8v25.7h-19v-79h29.5c19.9,0,31.9,10.9,31.9,27.2c0,10.4-5,18.4-14.3,22.7
	l17.6,29.1H1370.5z M1346,290.2h13.2c6.9,0,9.4-5,9.4-9.2c0-4.3-2.5-9.3-9.4-9.3H1346V290.2z"/>
<path class="st0" d="M1456.8,320.3h-31.2l-4.6,12.4h-20.4l31.6-79h17.9l31.6,79h-20.4L1456.8,320.3z M1450.7,303.8l-5.6-15.4
	c-1.5-4.5-3.6-11.5-3.8-11.5c-0.2,0-2,7-4,11.5l-5.5,15.4H1450.7z"/>
<path id="XMLID_9_" class="st0" d="M1532.8,278.9c-1.7-7.1-7.9-10.4-13.7-10.4c-5.6,0-8.8,3-8.8,6.2c0,5,7.9,6.9,17.4,10.4
	c11.9,4.4,24.2,11,24.2,24.4c0,14.6-12.5,24.8-30.9,24.8c-16.5,0-28.3-9.1-33.3-24l17.9-4.7c2.2,5.9,7.9,11.8,16.2,11.8
	c6.7,0,10-3.1,10-7c0-6.3-9.4-7.9-20.6-12.1c-9.5-3.7-20.4-8.9-20.4-22.9c0-12.1,12.2-23.4,29.4-23.4c15.1,0,27.4,9.3,30.9,21.6
	L1532.8,278.9z"/>
<path id="XMLID_8_" class="st0" d="M1081.9,275.6c0-5,3.2-6.6,7.1-3.7l21.7,16.2c3.9,3,3.9,7.9,0,10.8l-21.7,16.3
	c-3.8,2.8-7.1,1.4-7.1-3.7V275.6z"/>
<path id="XMLID_7_" class="st0" d="M57.7,277.5c-3.5-4.6-10.3-7.5-16.5-7.5c-13.4,0-21.4,9.5-21.4,22.5c0,13.6,9.1,22.1,21.4,22.1
	c7.5,0,14.8-3.8,17.9-9.3l19.3,5c-6.4,14-20.7,23.3-37.2,23.3c-23,0-41.2-17.3-41.2-41.1c0-23.9,18.2-41.3,41.2-41.3
	c15.4,0,28.9,8.4,35.9,21.1L57.7,277.5z"/>
<path class="st0" d="M138.8,319.6h-31.3l-4.6,12.4H82.4l31.9-79.1h17.8l31.6,79.1h-20.4L138.8,319.6z M132.6,302.9l-5.6-15.4
	c-1.6-4.4-3.6-11.5-3.8-11.5c0,0-2.3,7.1-3.9,11.5l-5.8,15.4H132.6z"/>
<path id="XMLID_4_" class="st0" d="M247,252.9V332h-17.9L213,309.9C205.8,300,195,285,195,285h-0.3c0,0,0.3,12.2,0.3,29.6V332H176
	v-79.1h17.9l17.1,22.6c4.9,6.7,17.1,23.8,17.1,23.8h0.2c0,0-0.2-14-0.2-28.3v-18.1H247z"/>
<path class="st0" d="M315.4,319.6h-31.3l-4.5,12.4h-20.4l31.6-79.1h17.8l31.8,79.1H320L315.4,319.6z M309.3,302.9l-5.6-15.4
	c-1.7-4.4-3.7-11.5-3.7-11.5h-0.2c0,0-2.1,7.1-3.8,11.5l-5.7,15.4H309.3z"/>
<polygon id="XMLID_1_" class="st0" points="409.3,314.2 409.3,332 352.8,332 352.8,252.9 371.7,252.9 371.7,314.2 "/>
</svg>
