<?xml version="1.0" encoding="utf-8"?>
<!-- Generator: Adobe Illustrator 21.1.0, SVG Export Plug-In . SVG Version: 6.00 Build 0)  -->
<svg version="1.1" baseProfile="tiny" id="Layer_3" xmlns="http://www.w3.org/2000/svg" xmlns:xlink="http://www.w3.org/1999/xlink"
	 x="0px" y="0px" viewBox="0 0 256 256" xml:space="preserve">
<g>
	<path fill="#E6E6E6" d="M169.1712341,19.6924133c1.4467163,28.3776245-12.7719269,48.3809204-40.3952942,50.4939194
		C129.7185211,40.8317986,145.180069,25.9975033,169.1712341,19.6924133z"/>
	<path fill="#E6E6E6" d="M187.8960114,128.8447723c0-17.6878052,9.2619934-33.2098389,23.1983185-41.9883118
		c-12.4252625-13.0233383-24.4146271-21.3504639-45.2901459-19.1949997
		c-12.4184113,1.2819519-22.6251221,8.3477249-33.6624756,8.4155121
		c-20.8274689,0.1282806-35.9813919-12.9345322-56.3849869-5.0493088
		c-19.2190247,7.4278793-31.2414284,30.1255112-32.8211327,52.1770248
		c-2.7067757,37.7846298,15.8785629,81.2861557,36.1873436,98.462532
		c3.5704269,3.0195465,10.6868134,6.7662964,15.1479187,7.5737457c12.1717072,2.2035217,19.6566467-5.6486664,32.8211288-7.5737457
		c17.9229126-2.6201172,30.8454285,9.6404114,46.2859497,7.5737457
		c23.9658508-3.206604,35.4060669-36.3353577,43.6220703-55.2223053
		C199.8343353,166.221405,187.8960114,148.9278717,187.8960114,128.8447723z"/>
</g>
</svg>
