<?xml version="1.0" encoding="UTF-8"?>
<svg viewBox="0 0 359 63" version="1.1" xmlns="http://www.w3.org/2000/svg" xmlns:xlink="http://www.w3.org/1999/xlink">
    <!-- Generator: sketchtool 45.2 (43514) - http://www.bohemiancoding.com/sketch -->
    <title>E960987C-B2AE-4CA9-811A-8543A9A974D7</title>
    <desc>Created with sketchtool.</desc>
    <defs>
        <polygon id="path-1" points="0 62.4318333 358.707116 62.4318333 358.707116 0 0 0"></polygon>
    </defs>
    <g id="Cambios-BBCL-2" stroke="none" stroke-width="1" fill="none" fill-rule="evenodd">
        <g id="Nota-2" transform="translate(-40.000000, -184.000000)">
            <g id="Header-BBCL" transform="translate(0.000000, 150.000000)">
                <g id="BIOBIOCHILE" transform="translate(40.000000, 34.000000)">
                    <g>
                        <path d="M85.8077276,27.07145 C84.0295467,27.07145 82.5541089,27.6810333 81.3819942,28.89845 C80.2104595,30.1170333 79.6252721,31.70895 79.6252721,33.6736167 C79.6252721,35.6808667 80.2104595,37.3037 81.3819942,38.5415333 C82.5541089,39.7805333 84.0295467,40.4000333 85.8077276,40.4000333 C87.5296517,40.4000333 88.9813108,39.7706167 90.1603851,38.5106167 C91.3388795,37.2517833 91.9275467,35.6452833 91.9275467,33.6940333 C91.9275467,31.7567833 91.3493189,30.16895 90.1911234,28.9293667 C89.0329279,27.6915333 87.5714094,27.07145 85.8077276,27.07145 L85.8077276,27.07145 Z M79.8729183,13.70145 L79.8729183,24.9125333 C80.8925015,23.8887833 81.9956,23.1205333 83.181054,22.6077833 C84.3665079,22.0967833 85.6348973,21.8395333 86.986222,21.8395333 C89.9220184,21.8395333 92.4170394,22.9542833 94.471285,25.1820333 C96.5249506,27.4115333 97.5520733,30.2687 97.5520733,33.75645 C97.5520733,37.1193667 96.4907325,39.9327833 94.3680507,42.1955333 C92.244209,44.4582833 89.7288892,45.58995 86.8203512,45.58995 C85.5247034,45.58995 84.3189506,45.3577833 83.2019328,44.8946167 C82.085495,44.43145 80.9754368,43.6737 79.8729183,42.6213667 L79.8729183,45.0083667 L74.2692704,45.0083667 L74.2692704,13.70145 L79.8729183,13.70145 L79.8729183,13.70145 Z" id="Fill-1" fill="#222"></path>
                        <g id="Clip-4"></g>
                        <path d="M102.034296,45.00825 L107.679121,45.00825 L107.679121,22.421 L102.034296,22.421 L102.034296,45.00825 Z M104.856998,13.1203333 C105.846423,13.1203333 106.695496,13.4808333 107.403057,14.2000833 C108.111197,14.9199167 108.464397,15.792 108.464397,16.81575 C108.464397,17.8266667 108.114677,18.68825 107.412916,19.4005 C106.712315,20.1139167 105.873682,20.46975 104.898176,20.46975 C103.894252,20.46975 103.0388,20.1063333 102.330659,19.3795 C101.623099,18.65325 101.269318,17.7706667 101.269318,16.7329167 C101.269318,15.736 101.619619,14.8849167 102.3208,14.1790833 C103.021981,13.47325 103.866414,13.1203333 104.856998,13.1203333 L104.856998,13.1203333 Z" id="Fill-3" fill="#222" mask="url(#mask-2)"></path>
                        <path d="M125.187012,27.175225 C123.433189,27.175225 121.972831,27.787725 120.805936,29.012725 C119.639041,30.2371417 119.056173,31.8051417 119.056173,33.714975 C119.056173,35.6808083 119.632081,37.272725 120.785637,38.4895583 C121.938033,39.7081417 123.398391,40.3165583 125.166133,40.3165583 C126.933295,40.3165583 128.404093,39.701725 129.578527,38.4691417 C130.751802,37.237725 131.338729,35.6533917 131.338729,33.714975 C131.338729,31.777725 130.761661,30.2038917 129.609265,28.991725 C128.45571,27.7813083 126.982012,27.175225 125.187012,27.175225 M125.093637,21.8400583 C127.216319,21.8400583 129.211988,22.373225 131.080063,23.4383917 C132.947559,24.504725 134.405018,25.950225 135.45302,27.777225 C136.501021,29.604225 137.024732,31.576475 137.024732,33.693975 C137.024732,35.8260583 136.497542,37.818725 135.44316,39.6731417 C134.388199,41.528725 132.951039,42.977725 131.131681,44.022475 C129.311742,45.067225 127.305634,45.5898917 125.113936,45.5898917 C121.888736,45.5898917 119.135049,44.4378083 116.854036,42.1330583 C114.572443,39.8288917 113.431647,37.0300583 113.431647,33.7353917 C113.431647,30.206225 114.720335,27.266225 117.298291,24.912475 C119.558425,22.864975 122.157261,21.8400583 125.093637,21.8400583" id="Fill-5" fill="#222" mask="url(#mask-2)"></path>
                        <path d="M152.245984,27.07145 C150.467803,27.07145 148.992946,27.6810333 147.820831,28.89845 C146.649296,30.1170333 146.063529,31.70895 146.063529,33.6736167 C146.063529,35.6808667 146.649296,37.3037 147.820831,38.5415333 C148.992946,39.7805333 150.467803,40.4000333 152.245984,40.4000333 C153.969068,40.4000333 155.420147,39.7706167 156.598642,38.5106167 C157.777136,37.2517833 158.366383,35.6452833 158.366383,33.6940333 C158.366383,31.7567833 157.787576,30.16895 156.62938,28.9293667 C155.471765,27.6915333 154.010246,27.07145 152.245984,27.07145 L152.245984,27.07145 Z M146.311755,13.70145 L146.311755,24.9125333 C147.331338,23.8887833 148.434437,23.1205333 149.619891,22.6077833 C150.804765,22.0967833 152.073734,21.8395333 153.425059,21.8395333 C156.361435,21.8395333 158.855296,22.9542833 160.910122,25.1820333 C162.963787,27.4115333 163.99149,30.2687 163.99149,33.75645 C163.99149,37.1193667 162.929569,39.9327833 160.806887,42.1955333 C158.683046,44.4582833 156.167726,45.58995 153.259188,45.58995 C151.96354,45.58995 150.757207,45.3577833 149.640769,44.8946167 C148.524332,44.43145 147.414274,43.6737 146.311755,42.6213667 L146.311755,45.0083667 L140.708107,45.0083667 L140.708107,13.70145 L146.311755,13.70145 Z" id="Fill-6" fill="#222" mask="url(#mask-2)"></path>
                        <path d="M169.847598,45.00825 L175.492423,45.00825 L175.492423,22.421 L169.847598,22.421 L169.847598,45.00825 Z M172.669721,13.1203333 C173.660305,13.1203333 174.508798,13.4808333 175.215779,14.2000833 C175.923919,14.9199167 176.278279,15.792 176.278279,16.81575 C176.278279,17.8266667 175.927979,18.68825 175.226218,19.4005 C174.525617,20.1139167 173.686984,20.46975 172.712058,20.46975 C171.708134,20.46975 170.851522,20.1063333 170.144541,19.3795 C169.436981,18.65325 169.08262,17.7706667 169.08262,16.7329167 C169.08262,15.736 169.432921,14.8849167 170.134102,14.1790833 C170.834703,13.47325 171.680296,13.1203333 172.669721,13.1203333 L172.669721,13.1203333 Z" id="Fill-7" fill="#222" mask="url(#mask-2)"></path>
                        <path d="M191.67387,27.175225 C189.920627,27.175225 188.460269,27.787725 187.292794,29.012725 C186.125899,30.2371417 185.543611,31.8051417 185.543611,33.714975 C185.543611,35.6808083 186.119519,37.272725 187.272495,38.4895583 C188.425471,39.7081417 189.885829,40.3165583 191.652991,40.3165583 C193.420732,40.3165583 194.891531,39.701725 196.065385,38.4691417 C197.23924,37.237725 197.825587,35.6533917 197.825587,33.714975 C197.825587,31.777725 197.249679,30.2038917 196.096123,28.991725 C194.942568,27.7813083 193.46887,27.175225 191.67387,27.175225 M191.581075,21.8400583 C193.703757,21.8400583 195.698846,22.373225 197.567501,23.4383917 C199.434997,24.504725 200.892456,25.950225 201.939878,27.777225 C202.987879,29.604225 203.51217,31.576475 203.51217,33.693975 C203.51217,35.8260583 202.9844,37.818725 201.930018,39.6731417 C200.875637,41.528725 199.438477,42.977725 197.619119,44.022475 C195.79976,45.067225 193.793652,45.5898917 191.601374,45.5898917 C188.375594,45.5898917 185.621907,44.4378083 183.341474,42.1330583 C181.059301,39.8288917 179.919085,37.0300583 179.919085,33.7353917 C179.919085,30.206225 181.207773,27.266225 183.785729,24.912475 C186.045863,22.864975 188.644699,21.8400583 191.581075,21.8400583" id="Fill-8" fill="#222" mask="url(#mask-2)"></path>
                        <path d="M231.784087,26.9884417 L227.085189,29.5836917 C226.201318,28.6573583 225.328467,28.0133583 224.465475,27.6528583 C223.603063,27.293525 222.592759,27.113275 221.433404,27.113275 C219.321742,27.113275 217.613737,27.745025 216.309389,29.010275 C215.005042,30.273775 214.353158,31.894275 214.353158,33.8706083 C214.353158,35.7909417 214.981263,37.359525 216.236893,38.5751917 C217.493103,39.7926083 219.142532,40.3998583 221.184598,40.3998583 C223.710937,40.3998583 225.677027,39.5359417 227.085189,37.8046083 L231.535861,40.8641917 C229.123195,44.014775 225.718205,45.589775 221.32089,45.589775 C217.364351,45.589775 214.266743,44.4143583 212.026908,42.0606083 C209.787073,39.708025 208.667155,36.953525 208.667155,33.7976917 C208.667155,31.6113583 209.210585,29.5976917 210.300344,27.7566917 C211.388943,25.9168583 212.909039,24.4701917 214.85947,23.4178583 C216.809901,22.3666917 218.99116,21.8399417 221.403826,21.8399417 C223.636701,21.8399417 225.642809,22.2861917 227.42099,23.1786917 C229.199751,24.071775 230.65373,25.3416917 231.784087,26.9884417" id="Fill-9" fill="#222" mask="url(#mask-2)"></path>
                        <path d="M236.125841,13.701625 L241.728909,13.701625 L241.728909,24.7050417 C242.831428,23.7495417 243.941486,23.0332083 245.057924,22.5560417 C246.174942,22.0782917 247.304719,21.8397083 248.449575,21.8397083 C250.68245,21.8397083 252.564446,22.6155417 254.0944,24.164875 C255.403387,25.5077083 256.058751,27.4799583 256.058751,30.081625 L256.058751,45.0085417 L250.496281,45.0085417 L250.496281,35.105875 C250.496281,32.4902083 250.372168,30.718625 250.123942,29.791125 C249.875715,28.8647917 249.452339,28.1717917 248.852652,27.7150417 C248.252966,27.2582917 247.511767,27.0302083 246.630216,27.0302083 C245.48594,27.0302083 244.503475,27.4117083 243.6834,28.1717917 C242.862746,28.933625 242.294378,29.971375 241.977715,31.285625 C241.811845,31.964625 241.728909,33.515125 241.728909,35.9365417 L241.728909,45.0085417 L236.125841,45.0085417 L236.125841,13.701625 Z" id="Fill-10" fill="#222" mask="url(#mask-2)"></path>
                        <path d="M262.701585,45.00825 L268.34641,45.00825 L268.34641,22.421 L262.701585,22.421 L262.701585,45.00825 Z M265.523708,13.1203333 C266.513132,13.1203333 267.362205,13.4808333 268.069186,14.2000833 C268.777326,14.9199167 269.131687,15.792 269.131687,16.81575 C269.131687,17.8266667 268.781386,18.68825 268.079625,19.4005 C267.379604,20.1139167 266.540391,20.46975 265.565465,20.46975 C264.561541,20.46975 263.704929,20.1063333 262.997948,19.3795 C262.290388,18.65325 261.936607,17.7706667 261.936607,16.7329167 C261.936607,15.736 262.286328,14.8849167 262.987509,14.1790833 C263.68811,13.47325 264.533703,13.1203333 265.523708,13.1203333 L265.523708,13.1203333 Z" id="Fill-11" fill="#222" mask="url(#mask-2)"></path>
                        <polygon id="Fill-12" fill="#222" mask="url(#mask-2)" points="274.329937 45.0088333 279.974763 45.0088333 279.974763 13.7019167 274.329937 13.7019167"></polygon>
                        <path d="M302.472927,30.8914083 C302.100008,29.632575 301.364609,28.6076583 300.26673,27.8189917 C299.168851,27.0297417 297.895822,26.6354083 296.445903,26.6354083 C294.871871,26.6354083 293.490968,27.079325 292.303774,27.9642417 C291.558515,28.5184083 290.867774,29.4937417 290.232129,30.8914083 L302.472927,30.8914083 Z M308.118333,35.355075 L289.983903,35.355075 C290.246048,36.961575 290.945489,38.2379083 292.082806,39.1852417 C293.220123,40.1337417 294.670622,40.6074083 296.435463,40.6074083 C298.544806,40.6074083 300.357205,39.8677417 301.873821,38.386075 L306.629556,40.627825 C305.444102,42.3177417 304.024341,43.566075 302.369693,44.3751583 C300.715625,45.184825 298.751274,45.5896583 296.476641,45.5896583 C292.947538,45.5896583 290.073798,44.472575 287.854262,42.2372417 C285.635305,40.0024917 284.525247,37.2024917 284.525247,33.839575 C284.525247,30.3932417 285.631245,27.5319917 287.843822,25.2546583 C290.056399,22.979075 292.830384,21.839825 296.166358,21.839825 C299.708801,21.839825 302.590661,22.979075 304.809617,25.2546583 C307.028573,27.5319917 308.138632,30.5384917 308.138632,34.275325 L308.118333,35.355075 Z" id="Fill-13" fill="#222" mask="url(#mask-2)"></path>
                        <path d="M315.575847,39.0917333 C316.470737,39.0917333 317.233975,39.4067333 317.86672,40.0367333 C318.500044,40.6667333 318.816707,41.4314833 318.816707,42.3304 C318.816707,43.2304833 318.500044,43.9987333 317.86672,44.63515 C317.233975,45.2715667 316.470737,45.5900667 315.575847,45.5900667 C314.680957,45.5900667 313.91772,45.2715667 313.284975,44.63515 C312.65165,43.9987333 312.334988,43.2304833 312.334988,42.3304 C312.334988,41.4314833 312.65165,40.6667333 313.284975,40.0367333 C313.91772,39.4067333 314.680957,39.0917333 315.575847,39.0917333" id="Fill-14" fill="#222" mask="url(#mask-2)"></path>
                        <path d="M347.381159,26.9884417 L342.690381,29.5836917 C341.80883,28.6561917 340.937138,28.012775 340.075306,27.6528583 C339.214634,27.2929417 338.20549,27.113275 337.048455,27.113275 C334.940852,27.113275 333.235167,27.7456083 331.93372,29.0096917 C330.631692,30.2743583 329.980969,31.8948583 329.980969,33.870025 C329.980969,35.7909417 330.607334,37.3601083 331.861224,38.575775 C333.115114,39.792025 334.761642,40.3998583 336.800229,40.3998583 C339.321928,40.3998583 341.285119,39.5353583 342.690381,37.8046083 L347.133513,40.864775 C344.724907,44.0153583 341.326297,45.5903583 336.936521,45.5903583 C332.987521,45.5903583 329.895133,44.413775 327.658778,42.0606083 C325.422423,39.7074417 324.304825,36.953525 324.304825,33.7976917 C324.304825,31.6113583 324.848255,29.5971083 325.935694,27.7566917 C327.021974,25.916275 328.539749,24.4696083 330.4867,23.417275 C332.433652,22.3661083 334.610851,21.8399417 337.019457,21.8399417 C339.248852,21.8399417 341.250901,22.2861917 343.025602,23.1786917 C344.800883,24.071775 346.252542,25.3416917 347.381159,26.9884417" id="Fill-15" fill="#222" mask="url(#mask-2)"></path>
                        <polygon id="Fill-16" fill="#222" mask="url(#mask-2)" points="353.07215 45.0088333 358.707116 45.0088333 358.707116 13.7019167 353.07215 13.7019167"></polygon>
                        <path d="M56.4296383,28.3788167 C56.4296383,12.70465 43.797942,0.000233333333 28.2147901,0.000233333333 L11.2855333,0.000233333333 L11.2855333,5.67431667 L11.2855333,5.67548333 L28.2147901,5.67548333 C40.6806157,5.67548333 50.7871326,15.84065 50.7871326,28.3788167 C50.7871326,40.5127333 41.3185801,50.4259 29.4077837,51.0494833 L29.4077837,45.3590667 C38.2000939,44.7424833 45.143467,37.3784833 45.143467,28.3788167 C45.143467,18.9749 37.5644493,11.3524833 28.2147901,11.3524833 L22.5717045,11.3524833 L22.5717045,17.0259833 L28.2147901,17.0259833 C34.4477029,17.0259833 39.5009614,22.1097333 39.5009614,28.3788167 C39.5009614,34.2413167 35.0804477,39.06665 29.4077837,39.66515 L29.4077837,33.9257333 C31.951522,33.3750667 33.8584557,31.1018167 33.8584557,28.3788167 C33.8584557,25.2428167 31.3315365,22.7018167 28.2147901,22.7018167 C25.0980438,22.7018167 22.5717045,25.2428167 22.5717045,28.3788167 C22.5717045,31.1018167 24.4792183,33.3750667 27.0212166,33.9257333 L27.0212166,39.66515 C21.3497126,39.06665 16.9286189,34.2413167 16.9286189,28.3788167 L16.9286189,11.3524833 L11.2855333,11.3524833 L11.2855333,28.3788167 C11.2855333,37.3784833 18.2294864,44.7424833 27.0212166,45.3590667 L27.0212166,51.0494833 C15.1115801,50.4259 5.64244766,40.5127333 5.64244766,28.3788167 L5.64244766,0.000233333333 L-5.79967689e-05,0.000233333333 L-5.79967689e-05,28.3788167 C-5.79967689e-05,43.6487333 11.9930939,56.1005667 27.0212166,56.7294 L27.0212166,62.4320667 L29.4077837,62.4320667 L29.4077837,56.7294 C44.4359065,56.1005667 56.4296383,43.6487333 56.4296383,28.3788167" id="Fill-17" fill="#222" mask="url(#mask-2)"></path>
                    </g>
                </g>
            </g>
        </g>
    </g>
</svg>
