<?xml version="1.0" encoding="utf-8"?>
<!-- Generator: Adobe Illustrator 21.1.0, SVG Export Plug-In . SVG Version: 6.00 Build 0)  -->
<svg version="1.1" baseProfile="tiny" id="Layer_3" xmlns="http://www.w3.org/2000/svg" xmlns:xlink="http://www.w3.org/1999/xlink"
	 x="0px" y="0px" viewBox="0 0 256 256" xml:space="preserve">
<g>
	<g id="g4367" transform="translate(136.1786,108.25001)">
		<path id="path4846" d="M-1.5163044-94.2499237c36.018959,0.0487976,34.0156822,38.0303802,33.7897491,58.499321
			C32.1274338-22.3391113,39.5305862-13.2898712,47.1130409-3.725704
			c6.7742653,8.0061579,15.6346283,19.731348,20.7151985,33.1627731
			c4.1396942,10.9440479,5.7731323,23.0439014,1.6720886,35.2064438c1.2284927,0.4663773,2.4256134,1.1832199,3.5996323,2.2061615
			c0.0074081,0.0061722,0.0166779-0.0061722,0.023468,0c2.9496231,2.5117188,3.8885651,6.3931198,4.7143631,9.9860306
			c0.8263397,3.5950012,1.5929642,6.9569092,3.2047653,8.7784042v0.023468
			c4.9056473,5.4454651,7.0352859,9.510376,6.8276291,13.1443558c-0.2079086,3.635582-2.8863144,6.1290054-6.2005997,8.1281509
			c-6.6288071,3.9980087-16.6430588,7.0257721-22.6658974,14.3287506l-1.1611099-0.9521561l1.1611099,0.9753799
			c-6.3188171,7.5198898-14.1291847,11.8441391-21.4815063,12.4244308
			c-7.3426838,0.5792847-14.2433243-2.8031158-17.9514751-10.2182693c-0.0074062-0.010498,0.0074081-0.0358276,0-0.0463257
			c-0.4954739-0.9485245-0.8879871-1.9347076-1.1379528-2.9725494c-9.5656567,0.5311661-17.8664303-2.3708878-24.5238419-1.8345947
			c-9.8132763,0.5403061-15.9450674,2.9219513-21.5278358,2.9493027c-2.1574974,4.741478-6.3438969,7.8054199-11.5187702,8.9874115
			c-7.1377525,1.6302643-16.0939751,0.0160522-24.9185753-4.5981903v-0.0234604
			c-8.2429733-4.3689804-18.7048264-3.9606018-26.4280396-5.5735703c-3.8615799-0.8065872-7.2792587-2.2436523-8.9410324-5.4807281
			c-1.6581879-3.2304077-1.356842-7.6813354,0.9986725-14.1197357c0.7368469-2.2939987,0.1767044-5.6647873-0.371582-9.2428055
			c-0.5484009-3.5782623-1.0756836-7.4450989,0.7199326-10.7988586c0-0.0061722,0-0.0166702,0-0.023468
			c1.9835052-3.8061752,5.268013-5.3649826,8.2442017-6.4328308c2.9751282-1.0673523,5.6706619-1.7970352,7.5708466-3.6924667
			c2.0337753-2.1515732,3.869606-5.3514709,6.3399353-7.9888039c0.3300095-0.3523636,0.6571732-0.695343,1.0218964-1.0218353
			c-1.1639557-7.6752319,0.0915985-15.8009605,2.740181-23.7574005C-66.5493927,20.9390621-54.68153,4.7473774-46.2672272-5.2585354
			c7.1618385-10.1804552,9.2740631-18.3834019,10.009243-28.7968388
			c0.5973892-14.2398071-10.0845337-56.7671356,30.1669025-60.0088425c1.592597-0.1269913,3.1109521-0.185791,4.575079-0.185791
			L-1.5163044-94.2499237z"/>
	</g>
	<path fill="#FFFFFF" d="M150.9417572,83.0195694c-1.9985809,2.8517303-5.5222473,5.2837067-9.9395142,6.6650696
		c-2.0905457,0.682251-4.29776,2.4382172-7.0598755,4.017601c-2.7661133,1.5817871-6.1598282,2.973587-10.5898361,2.7171402
		c-3.7953033-0.2210541-6.303009-1.6352158-8.3138733-3.2512817c-2.0070419-1.612915-3.5568314-3.3831482-5.6200714-4.5981827
		c-0.7052307-0.4009781-2.2797318-1.4770355-2.740303-1.8114319c-0.8931808,16.8455887-12.1334534,37.9972076-17.5103607,50.1854553
		c-3.6914825,8.7838287-5.9180298,18.1725922-6.1773758,27.3802032c-9.704628-12.9384308-2.6069565-29.5336151,1.1843948-36.7159729
		c4.2303772-7.8555756,4.8824234-9.9987411,3.8550949-9.2428055c-3.816185,6.2248077-9.7717056,16.136467-12.0993576,26.3351517
		c-1.2128067,5.3132782-1.4573975,10.6987152,0.1161728,15.675705c1.5732651,4.9763641,4.950737,9.5673828,10.9613495,13.3069153
		c8.1814499,5.0175629,13.7351913,10.0416107,17.0226059,14.4912415c3.2864914,4.4500885,4.3246918,8.3384094,3.2976685,11.1007538
		c-0.5135117,1.3812408-1.5417099,2.4420471-3.0189896,3.1118774c-1.1878586,0.5386505-2.6599503,0.8360596-4.3891678,0.8360596
		c0.8790894,1.1044769,1.7634354,2.2172241,2.6241837,3.3441772c1.3480148,1.76474,2.643898,3.55867,3.7854233,5.3645325
		c16.8445435,11.4956665,36.6804047,7.0846405,50.9749908-3.1118774c1.4206543-4.8805695,2.8327179-9.5053711,3.0422821-12.9121704
		c0.3428497-6.7752075,0.7079315-12.8034821,1.9506378-17.7889862c1.2440033-4.9894714,3.4735107-9.0444946,7.5709229-11.2864838
		c0.6570435-0.3595886,1.2987823-0.6560669,1.9507599-0.8824921c0.0457153-0.4214172,0.1105652-0.8461761,0.185791-1.2540588
		c1.1752472-7.7858582,8.1340179-8.1585999,16.8599701-4.3195038c8.4131317,3.8065338,11.5738068,7.1263885,10.1485901,11.6348267
		c0.0512695-0.0061798,0.1113586,0,0.1625671,0c0.5531006-0.0111237,1.118927-0.0209961,1.6953125,0
		c1.7499695-5.6877136-1.8859711-9.8615112-11.7277832-14.6538849c-0.661377-0.3130798-1.3080444-0.5922546-1.9507751-0.8592682
		c1.313797-5.339035,1.0385132-10.738678-0.1857758-15.8847198c-2.6847839-11.2854156-10.0774994-21.2944183-15.6989441-26.2654724
		c-1.0369568-0.0426178-0.930603,0.8731003,1.1613007,2.9029312c5.1809998,4.7679672,16.5118713,21.8893356,10.3807068,37.7841873
		c-1.7520752-0.4481659-3.3909302-0.6725616-4.8768768-0.6270294c-2.3450165-12.956665-7.7687378-23.7120819-10.4968719-28.773613
		c-5.1325073-9.5401459-13.1015472-29.0802078-16.5349731-42.6146088V83.0195694z"/>
	<path fill="#FFFFFF" d="M139.4462738,45.5372238c-2.0860443,0.0191498-3.8278503,0.6590919-5.6200256,2.020443
		c-1.7922821,1.36129-3.0822296,3.0336838-4.1105499,5.3645554c-1.0283813,2.3308678-1.4688721,4.6184998-1.4398499,7.2921028
		v0.2090111c0.0172882,0.7545128,0.0707245,1.4604797,0.1625671,2.1597786
		c1.6171722,0.3848572,3.3272552,1.0163956,5.1555328,1.9274826c-0.1251831-0.7230759-0.1791077-1.4630127-0.1625061-2.2758331
		c0-0.0586777,0.01297-0.1039505,0.023468-0.1625671c0.0494232-1.4788895,0.2936859-2.740799,0.8127594-3.9944305
		c0.5190735-1.2535095,1.1549377-2.1513214,1.9972229-2.8564262c0.8027496-0.6720581,1.5680847-0.9696999,2.4616241-0.9753838
		c0.0438538,0,0.0949402-0.006176,0.1393433,0c0.9499969,0.0296478,1.7379913,0.3874512,2.5312958,1.1611748
		c0.7933655,0.7737236,1.3572083,1.7030296,1.7882538,2.9957619c0.4113617,1.2339325,0.6101837,2.4448242,0.5805969,3.8550949
		c0,0.0683098-0.023468,0.1039467-0.023468,0.1625633c-0.049408,1.4690666-0.3170471,2.7078133-0.8361053,3.9711494
		c-0.3435974,0.8363495-0.7382202,1.5027924-1.2076263,2.0668869c1.2946472,0.4492111,2.8520355,1.0138626,4.8768768,1.8811035
		c0.2920837,0.1201248,0.5880585,0.2413712,0.8592682,0.3715134c0.7989807-0.9664307,1.4625244-2.0838089,2.0436707-3.4137878
		c1.0185547-2.3309326,1.4825287-4.6086807,1.4630737-7.2921028c-0.0185242-0.0686836-0.023468-0.1404533-0.023468-0.2090111
		c-0.049408-2.6149216-0.5411835-4.8073158-1.5791321-7.0598679c-1.057785-2.3112259-2.3818207-3.9727554-4.2035065-5.2948837
		c-1.7930145-1.3015022-3.5297852-1.9043236-5.5735016-1.9043236h-0.1161804L139.4462738,45.5372238z"/>
	<path fill="#FFFFFF" d="M111.2300186,47.7666779c-1.4984131,0.0783768-2.7372208,0.703373-3.9711533,1.9275475
		c-1.2339935,1.2242317-2.0805359,2.7041092-2.7171402,4.760746c-0.6364822,2.056633-0.8936081,4.0518723-0.7664337,6.363163
		v0.023468c0.1371765,2.3112907,0.6014023,4.2651482,1.4630737,6.2238274
		c0.7277069,1.6536789,1.5807419,2.9023132,2.6474762,3.901474c0.4892349-0.3603973,0.9007111-0.6696472,1.2540665-0.9288712
		c0.5510025-0.4048691,0.8604431-0.6437759,1.5327454-1.1611786c-0.1066055-0.0750427-0.2168503-0.1619415-0.3251266-0.255455
		c-0.6463623-0.5581665-1.1249771-1.2805634-1.5559692-2.2991257c-0.421051-0.9891586-0.6721268-1.9599075-0.7895355-3.1351013
		v-0.1393394c-0.1077194-1.2144165-0.0457077-2.2668839,0.2089462-3.3441772
		c0.2546616-1.0772362,0.5992432-1.8983955,1.1379547-2.5545807c0.5385818-0.6561852,1.1257782-0.9863777,1.8114243-1.0449944
		c0.0643616-0.006176,0.1229095,0,0.1858521,0c0.6088791-0.006176,1.1559219,0.214016,1.7416992,0.7198677
		c0.6463699,0.5582886,1.138504,1.2708015,1.5791321,2.2991219c0.4114151,0.9891586,0.6719971,1.9697914,0.7895966,3.1351662
		c0,0.0487938-0.011116,0.0902977,0,0.1393394c0.0839996,0.8774261,0.0636139,1.6628265-0.0463181,2.4384003
		c1.122818-0.7414856,2.4162292-1.4010658,3.8781891-1.9042587c0.2576218-0.0886345,0.5214157-0.179306,0.7896652-0.2554588
		c0.0762711-0.885025,0.0848007-1.8160629,0.023468-2.7868156c-0.1273575-2.3112907-0.5780487-4.2650871-1.4398499-6.2238235
		c-0.8618622-1.9586754-1.9132233-3.3486252-3.2745056-4.4356194c-1.2548141-1.0021896-2.4527359-1.4630775-3.8086472-1.4630775
		c-0.1148224,0-0.2311249-0.006176-0.3482895,0L111.2300186,47.7666779z"/>
	<path fill="#F9C73D" d="M124.2814713,63.7674522c-1.65065,0.006794-3.1137924,0.3114128-4.4356766,0.7663765
		c-3.8399658,1.3218765-6.3906479,4.0841141-7.9887466,5.5968475c-0.3114777,0.2989426-0.7175751,0.5830612-1.6953125,1.3004532
		c-0.9840317,0.7223358-2.4713211,1.7967911-4.5982437,3.390625c-1.8914719,1.4177399-2.5112228,3.2732697-1.857811,5.434227
		c0.6534042,2.1608887,2.7592087,4.6492691,6.572113,6.8044128v0.0234756
		c2.3672485,1.390007,3.9739914,3.2465897,5.8290863,4.7375793c1.8551025,1.4908142,3.9065399,2.656311,7.3385468,2.8564301
		c4.0314407,0.2331619,6.9942245-0.9634018,9.6143875-2.4616928c2.6203003-1.4982758,4.8593903-3.3287964,7.4082184-4.1569366
		v-0.023468c5.2274475-1.6323166,8.9582062-4.9114609,10.1253662-8.0352631
		c0.5835419-1.5617752,0.5810699-3.0432587-0.1161194-4.4123917c-0.6972046-1.369072-2.1439056-2.6717453-4.5749664-3.6693039
		c-5.0528259-2.1640472-7.2588654-2.3230896-10.0789185-4.1569366c-4.5909424-2.9517899-8.3672943-3.9837494-11.5187149-3.9711494
		l-0.023468-0.0234718L124.2814713,63.7674522z"/>
	<path fill="#F9C73D" d="M171.7497864,169.2474365c-0.1457062,0.0720825-0.2936401,0.1515808-0.4413147,0.2322388
		c-3.1691284,1.7342224-4.9483185,4.8254852-6.0843506,9.3822174s-1.5157013,10.4691467-1.8578796,17.2316284v0.023468
		c-0.3236389,5.2780151-2.7299347,11.7434692-4.4125214,18.0677185c-1.6822662,6.3243256-2.5312958,12.3177032-0.5340729,16.1169586
		l0.023468,0.023468v0.023468c3.2192841,6.4614868,8.6729736,9.0921173,15.0021667,8.5926208
		c6.3292542-0.4994812,13.5209198-4.365509,19.4145508-11.379425c6.7875519-8.2215271,17.4116516-11.3616486,23.4090576-14.9790039
		c3.0000916-1.8094025,4.6325836-3.4689331,4.7608643-5.7129211c0.1282349-2.2438354-1.3974762-5.7602844-6.0845337-10.9614105
		v-0.0234528c-2.437851-2.7440796-3.0886078-6.588501-3.9014893-10.1253052
		c-0.8128815-3.5368195-1.7438507-6.6897125-3.7157593-8.3603821h-0.023468
		c-2.5660706-2.244278-5.0641937-2.4412537-8.0584717-2.3688049c-0.6463013,0.0154419-1.3165741,0.0419922-1.9972839,0.0696716
		c-3.4135437,3.9243317-11.4847412,8.7462921-17.0922699,7.2688751c-5.1242371-1.2926178-8.0458069-7.26474-8.4068298-13.1211395
		L171.7497864,169.2474365z"/>
	<path fill="#F9C73D" d="M68.7546921,169.6886902c-2.703743,0.0191498-4.501091,1.2911224-6.2934952,3.204834
		c-2.1243896,2.267868-3.9465675,5.4627533-6.3631668,8.0119629v0.023468h-0.023468
		c-2.6139374,2.6196747-5.9172249,3.4108887-8.7087326,4.4124603c-2.7915688,1.0015106-5.0387497,2.0603333-6.5722389,5.0162048
		l-0.0234718,0.023468c-1.1977348,2.2237701-0.9090462,5.410202-0.3715744,8.9177399
		c0.5375977,3.5074768,1.339489,7.2442322,0.232235,10.6594391v0.023468v0.0463409
		c-2.2387772,6.1051025-2.2379761,9.6754608-1.1843948,11.7277679c1.0535164,2.0523224,3.3563423,3.1435089,6.8741417,3.8782654
		c7.033802,1.4689941,18.0003967,0.9936066,27.2176361,5.875412c8.3311691,4.3581543,16.6755524,5.7713165,22.8284073,4.3659973
		c6.1545792-1.4057007,10.1656952-5.2704926,10.7059402-12.3779144v-0.023468v-0.023468
		c0.4174728-4.1671753-2.800705-9.6244354-6.9438095-15.0486603s-9.0160065-10.7240448-11.3329239-15.5596008v-0.023468
		c-2.8831024-6.1905365-5.7177277-11.7731781-8.7319565-15.861496c-3.0141068-4.0883179-6.119751-6.5860748-9.7072754-7.1295319
		c-0.5267944-0.0796204-1.0415955-0.1383514-1.5095901-0.1393433h-0.0928268L68.7546921,169.6886902z"/>
	<path d="M146.3435211,76.8421936l0.0929413,1.6952515c-0.7751923,0.0463181-2.1245117,0.6211014-3.715744,1.5095215
		c-1.5911865,0.8883591-3.4667206,2.0622559-5.5271301,3.2512817c-4.1208649,2.3780594-8.9968567,4.7839737-14.1661835,4.7839737
		c-5.1622162,0-9.2345963-2.3658218-12.1689072-4.6910782c-1.4672165-1.1627121-2.6796494-2.318512-3.5764084-3.1583862
		c-0.44841-0.4199448-0.8193054-0.7657623-1.091568-0.9753876c-0.1675644-0.1293945-0.3191986-0.166954-0.3482819-0.185791
		c-0.0179138-0.011734,0.024704-0.0061722,0.0696716-0.441246l0.0463181-1.3005142
		c0.6192551,0,0.907135,0.2720718,1.2772903,0.5573654c0.3701553,0.2852325,0.7732315,0.6630478,1.2308426,1.091507
		c0.914917,0.8569183,2.0725098,1.9658356,3.4601746,3.0654907c2.775383,2.1993103,6.4693298,4.3427353,11.1007462,4.3427353
		c4.6241302,0,9.264679-2.2423096,13.3069305-4.5749664c2.0209351-1.1662979,3.8919678-2.3485336,5.5503387-3.2745056
		c1.658371-0.9257889,3.0989685-1.6140366,4.458847-1.6952515H146.3435211z"/>
</g>
</svg>
